<svg height="511pt" viewBox="-61 0 511 511.99955" width="511pt" xmlns="http://www.w3.org/2000/svg"><path d="m390.027344 194.761719c0 68.550781-35.421875 128.828125-88.953125 163.53125-8.066407 5.234375-14.800781 12.265625-19.539063 20.625l-69.945312 123.5625c-.15625.273437-.316406.535156-.496094.800781-7.472656 11.882812-25.128906 11.621094-32.160156-.800781l-69.945313-123.5625c-4.726562-8.351563-11.449219-15.378907-19.503906-20.59375-54.300781-35.1875-89.976563-96.679688-88.964844-166.433594 1.511719-104.859375 87.109375-190.414063 191.96875-191.8710938 6.277344-.0859374 12.496094.1249998 18.628907.6210938 100.152343 8.054687 178.910156 91.886719 178.910156 194.121094zm0 0" fill="#44bfd7"/><path d="m390.027344 194.761719c0 68.550781-35.421875 128.828125-88.953125 163.53125-8.066407 5.234375-14.800781 12.265625-19.539063 20.625l-69.945312 123.5625c-.15625.273437-.316406.535156-.496094.800781-.179688-.265625-.335938-.527344-.496094-.800781l-69.945312-123.5625c-4.726563-8.351563-11.449219-15.378907-19.503906-20.59375-54.300782-35.1875-89.976563-96.679688-88.964844-166.433594 1.445312-100.480469 80.097656-183.226563 178.933594-191.25 100.152343 8.054687 178.910156 91.886719 178.910156 194.121094zm0 0" fill="#7cd2e3"/><path d="m339.070312 194.527344c0 79.441406-64.414062 143.808594-143.808593 143.808594-79.421875 0-143.804688-64.382813-143.804688-143.808594 0-85.367188 74.105469-152.316406 159.636719-142.929688 71.972656 7.886719 127.976562 68.871094 127.976562 142.929688zm0 0" fill="#c2eaf2"/><path d="m339.070312 194.527344c0 74.074218-56.003906 135.058594-127.976562 142.941406-71.96875-7.882812-127.972656-68.867188-127.972656-142.941406 0-74.058594 56.003906-135.042969 127.972656-142.929688 71.972656 7.886719 127.976562 68.871094 127.976562 142.929688zm0 0" fill="#def4f8"/><path d="m296.597656 182.085938v114.472656c-16.792968 16.675781-37.667968 29.238281-60.996094 36.035156-12.800781 3.734375-26.332031 5.742188-40.339843 5.742188-14.003907 0-27.535157-2.007813-40.339844-5.742188-23.335937-6.796875-44.210937-19.359375-60.992187-36.035156v-114.472656l101.332031-93.355469zm0 0" fill="#6dc54a"/><path d="m317.894531 187.738281-113.808593-113.808593c-4.839844-4.84375-12.785157-4.863282-17.648438 0l-113.808594 113.808593c-4.839844 4.839844-4.839844 12.683594 0 17.523438l4.65625 4.65625c4.839844 4.839843 12.683594 4.839843 17.523438 0l100.453125-100.449219 100.453125 100.453125c4.839844 4.835937 12.683594 4.835937 17.523437 0l4.65625-4.660156c4.839844-4.835938 4.839844-12.683594 0-17.523438zm0 0" fill="#5ca33b"/><path d="m93.929688 249.304688v47.253906c16.78125 16.675781 37.65625 29.238281 60.992187 36.035156 12.804687 3.734375 26.335937 5.742188 40.339844 5.742188 5.351562 0 10.628906-.296876 15.824219-.867188-53.121094-5.824219-97.535157-40.570312-117.15625-88.164062zm0 0" fill="#5db33a"/><path d="m235.601562 268.304688v64.289062c-12.800781 3.734375-26.332031 5.742188-40.339843 5.742188-14.003907 0-27.535157-2.007813-40.339844-5.742188v-64.289062c0-22.28125 18.0625-40.339844 40.339844-40.339844 11.148437 0 21.226562 4.519531 28.53125 11.8125 7.292969 7.300781 11.808593 17.390625 11.808593 28.527344zm0 0" fill="#5ca33b"/><g fill="#498d2d"><path d="m84.304688 176.066406-11.675782 11.675782c-4.832031 4.832031-4.832031 12.675781 0 17.519531 4.621094 4.621093 6.71875 7.496093 11.738282 8.167969-1.640626-12.320313-1.660157-25.019532-.0625-37.363282zm0 0"/><path d="m154.921875 319.03125v13.5625c12.804687 3.734375 26.335937 5.742188 40.339844 5.742188 5.351562 0 10.628906-.296876 15.824219-.867188-20.289063-2.226562-39.308594-8.675781-56.164063-18.4375zm0 0"/></g></svg>